<svg xmlns="http://www.w3.org/2000/svg" width="195" height="56.397" viewBox="0 0 195 56.397"><g transform="translate(4369 -496)"><path d="M-4368,430.3h54.587a14.148,14.148,0,0,1-6.42,4.756c-4.31,1.605-10.819,1.664-10.819,1.664v2.14H-4351.7v-2.14a32.744,32.744,0,0,1-9.749-1.664c-.2-.079-.4-.161-.876-.379A16.692,16.692,0,0,1-4368,430.3Z" transform="translate(-1 113.532)" fill="#1cb151"/><path d="M-4347.589,428.111s-1.995-9.416,6.1-15.185,17.517-2.744,17.517-2.744-3.095,3.166-3.939,6.12-1.672,7.07-6.807,10.763S-4347.589,428.111-4347.589,428.111Z" transform="translate(-0.228 112.737)" fill="#1cb151"/><path d="M-4357.459,428.423s-17.165-12.381-3.729-27.647,27.507.281,27.507.281Z" transform="translate(-0.936 112.154)" fill="#1cb151"/><path d="M-4357,403.725l-8.708-2.465,4.739-5.828Z" transform="translate(-0.913 112.206)" fill="#1cb151"/><path d="M-4347.274,427.957a34.039,34.039,0,0,1,6.548-8.868c3.923-3.545,11.313-7.246,11.313-7.246" transform="translate(0 113)" fill="none" stroke="#fff" stroke-width="1"/><text transform="translate(-4310 529)" fill="#fff" font-size="31" font-family="OpenSans-SemiBold, Open Sans" font-weight="600" letter-spacing="-0.058em"><tspan x="0" y="0">LEGANIC</tspan></text><text transform="translate(-4309 548)" fill="#fff" font-size="13" font-family="OpenSans-SemiBold, Open Sans" font-weight="600" letter-spacing="0.01em"><tspan x="0" y="0">Best Organic Food</tspan></text><rect width="17" height="44" transform="translate(-4191 506)" fill="none"/></g></svg>